<?xml version="1.0" ?><!-- Created with Inkscape (http://www.inkscape.org/) --><!DOCTYPE svg  PUBLIC '-//W3C//DTD SVG 1.1//EN'  'http://www.w3.org/Graphics/SVG/1.1/DTD/svg11.dtd' [
	<!ENTITY stroke_color "#000000">
	<!ENTITY fill_color "#ffffff">
]><svg height="55" id="svg3179" inkscape:version="0.48.3.1 r9886" sodipodi:docname="Icono.svg" version="1.1" width="55" xmlns="http://www.w3.org/2000/svg" xmlns:cc="http://creativecommons.org/ns#" xmlns:dc="http://purl.org/dc/elements/1.1/" xmlns:inkscape="http://www.inkscape.org/namespaces/inkscape" xmlns:rdf="http://www.w3.org/1999/02/22-rdf-syntax-ns#" xmlns:sodipodi="http://sodipodi.sourceforge.net/DTD/sodipodi-0.dtd" xmlns:svg="http://www.w3.org/2000/svg">
  <defs id="defs3181"/>
  <sodipodi:namedview bordercolor="#666666" borderopacity="1.0" id="base" inkscape:current-layer="layer1" inkscape:cx="51.967447" inkscape:cy="28.222607" inkscape:document-units="px" inkscape:pageopacity="0.0" inkscape:pageshadow="2" inkscape:window-height="555" inkscape:window-maximized="1" inkscape:window-width="1024" inkscape:window-x="0" inkscape:window-y="20" inkscape:zoom="6.052834" pagecolor="#ffffff" showgrid="false"/>
  <metadata id="metadata3184">
    <rdf:RDF>
      <cc:Work rdf:about="">
        <dc:format>image/svg+xml</dc:format>
        <dc:type rdf:resource="http://purl.org/dc/dcmitype/StillImage"/>
        <dc:title/>
      </cc:Work>
    </rdf:RDF>
  </metadata>
  <g id="layer1" inkscape:groupmode="layer" inkscape:label="Capa 1" transform="translate(0,-997.36218)">
    <polygon id="polygon5598" points="45,87 45,100 55,100 55,87 87.195,87 72.015,58 80.921,58 61.741,29 70.647,29 50.101,0 28.92,29 37.828,29 18.647,58 27.554,58 12.374,87 " style="fill:&stroke_color;;stroke:&fill_color;" transform="matrix(0.72668666,0,0,0.54371422,-8.6777319,997.67647)"/>
    <g id="terron" transform="matrix(0.28017146,0,0,-0.28017125,-162.61571,1069.4645)">
      <g id="g308" transform="translate(704.4243,105.6064)">
        <path d="m 0,0 c 0,0 -0.99,0.003 -1.919,0.004 0,3.6 0.009,14.962 0.011,17.995 0,0.004 10e-4,0.008 10e-4,0.012 l 0,33.828 c 0,0.015 -0.002,0.028 -0.002,0.043 l -0.02,20.567 c -0.011,2.332 -1.907,4.212 -4.227,4.202 -1.126,-0.005 -2.185,-0.446 -2.975,-1.246 -0.791,-0.801 -1.225,-1.861 -1.219,-2.987 0,-0.237 0.005,-6.784 0.009,-12.298 l -33.676,0 c -4.574,0 -8.28,-3.708 -8.28,-8.281 l 0,-4.571 -14.856,-0.014 c -2.332,-0.012 -4.209,-1.908 -4.201,-4.229 0.003,-1.124 0.449,-2.183 1.249,-2.976 0.799,-0.789 1.859,-1.223 2.984,-1.216 0.244,0 9.025,0.006 14.824,0.01 l 0,-19.995 c -0.001,-0.036 -0.01,-0.071 -0.01,-0.107 0,-0.306 0.011,-14.614 0.014,-18.737 C -53.222,0.003 -54.211,0 -54.211,0 c -2.373,-0.046 -4.224,-1.973 -4.18,-4.291 0.048,-2.323 1.974,-4.176 4.296,-4.128 l 6.054,0.008 c 2.371,0.043 4.222,1.968 4.176,4.29 l -0.012,13.85 33.539,0 -0.012,-13.85 c -0.046,-2.322 1.809,-4.247 4.177,-4.29 l 6.055,-0.008 C 2.202,-8.467 4.13,-6.614 4.177,-4.291 4.222,-1.973 2.371,-0.046 0,0" id="cuerpo" inkscape:connector-curvature="0" style="fill:&fill_color;;fill-opacity:1;fill-rule:nonzero;stroke:&fill_color;"/>
      </g>
      <g id="g312" transform="translate(671.1978,150.001)">
        <path d="m 0,0 c 0.222,-1.563 -0.865,-3.009 -2.427,-3.23 -1.559,-0.222 -3.005,0.865 -3.228,2.425 -0.221,1.562 0.864,3.008 2.427,3.228 C -1.666,2.646 -0.221,1.56 0,0" id="ojo_izq" inkscape:connector-curvature="0" style="fill:&stroke_color;;fill-opacity:1;fill-rule:nonzero;stroke:&stroke_color;"/>
      </g>
      <g id="g316" transform="translate(686.0581,152.1084)">
        <path d="m 0,0 c 0.222,-1.562 -0.866,-3.007 -2.427,-3.229 -1.562,-0.222 -3.006,0.865 -3.23,2.427 -0.22,1.56 0.867,3.007 2.427,3.227 C -1.667,2.647 -0.222,1.561 0,0" id="ojo_der" inkscape:connector-curvature="0" style="fill:&stroke_color;;fill-opacity:1;fill-rule:nonzero;stroke:&stroke_color;"/>
      </g>
      <g id="g320" transform="translate(689.3911,140.6904)">
        <path d="m 0,0 c 1.399,-8.942 -9.674,-18.043 -17.648,-12.363 -2.683,1.911 -6.94,7.251 -5.409,10.884 0.539,1.277 1.731,0.486 3.024,-0.169 3.092,-1.571 6.768,-1.776 10.066,-0.782 1.68,0.507 3.115,1.325 4.48,2.42 0.83,0.669 3.097,3.333 4.345,2.126 C -0.168,1.175 0,0.004 0,0" id="boca" inkscape:connector-curvature="0" style="fill:&stroke_color;;fill-opacity:1;fill-rule:nonzero;stroke:none"/>
      </g>
      <g id="g324" transform="translate(647.6968,191.7734)">
        <path d="m 0,0 c 4.563,7.816 18.894,7.876 21.489,-1.564 0.873,-3.173 0.799,-10.005 -2.682,-11.855 -1.222,-0.649 -1.647,0.718 -2.236,2.044 -1.406,3.168 -4.127,5.651 -7.313,6.962 C 7.64,-3.744 6.007,-3.472 4.259,-3.461 3.193,-3.454 -0.246,-4.088 -0.454,-2.362 -0.614,-1.021 -0.004,-0.003 0,0" id="pelo_claro" inkscape:connector-curvature="0" style="fill:&fill_color;;fill-opacity:1;fill-rule:nonzero;stroke:&stroke_color;"/>
      </g>
      <g id="g328" transform="translate(680.9731,172.3496)">
        <path d="M 0,0 C -10.007,8.159 -6.93,28.366 6.946,29.94 11.615,30.47 21.224,28.858 23.06,23.544 23.706,21.679 21.688,21.381 19.688,20.843 14.912,19.562 10.813,16.275 8.261,12.077 6.961,9.939 6.219,7.703 5.813,5.241 5.569,3.741 5.703,-1.25 3.227,-1.158 1.301,-1.088 0.003,-0.002 0,0" id="pelo_oscuro" inkscape:connector-curvature="0" style="fill:&fill_color;;fill-opacity:1;fill-rule:nonzero;stroke:&stroke_color;"/>
      </g>
    </g>
  </g>
</svg>